Coordinates
version=1
nRows=8
nColumns=40
inDegrees=yes

Units are S.I. units (second, meters, Newtons, ...)
Angles are in degrees.

endheader
time	pelvis_tilt	pelvis_list	pelvis_rotation	pelvis_tx	pelvis_ty	pelvis_tz	hip_flexion_r	hip_adduction_r	hip_rotation_r	knee_angle_r	knee_angle_r_beta	ankle_angle_r	subtalar_angle_r	mtp_angle_r	hip_flexion_l	hip_adduction_l	hip_rotation_l	knee_angle_l	knee_angle_l_beta	ankle_angle_l	subtalar_angle_l	mtp_angle_l	lumbar_extension	lumbar_bending	lumbar_rotation	arm_flex_r	arm_add_r	arm_rot_r	elbow_flex_r	pro_sup_r	wrist_flex_r	wrist_dev_r	arm_flex_l	arm_add_l	arm_rot_l	elbow_flex_l	pro_sup_l	wrist_flex_l	wrist_dev_l
      1.98000000	      5.51803469	     -6.31881914	      3.32825110	      0.78990670	      0.89917372	      1.02682070	      4.86391597	      7.00374489	    -19.68005487	    -19.22645118	     -0.33556488	      5.03182348	      3.31921283	     -3.77936077	      8.08950832	     11.64412820	      9.17034856	    -59.27571275	     -1.03455635	     -0.63468422	      7.93293197	     -9.16409642	    -10.61246595	      9.16228183	     -1.20373560	      4.45089116	    -11.97989022	     17.59597698	     15.52348376	     89.95437384	      0.00000000	      0.00000000	      8.86247659	      6.11441420	    -12.34006257	     21.34453020	     89.95437384	      0.00000000	      0.00000000
      1.99000000	      5.76418963	     -6.12623126	      3.22340702	      0.79867053	      0.89981857	      1.02747420	      3.90780539	      7.00842074	    -19.19223193	    -19.10866107	     -0.33350905	      5.52613059	      3.05398092	     -3.82872901	      9.02909306	     11.21571532	      8.95238072	    -58.89214988	     -1.02786192	      0.28900428	      7.27405867	     -9.51494237	    -10.89276279	      8.82418843	     -1.02345384	      5.17348764	    -11.96474754	     17.66798876	     15.63398445	     89.95437384	      0.00000000	      0.00000000	      8.59086069	      6.12032772	    -12.57861866	     20.20924835	     89.95437384	      0.00000000	      0.00000000
      2.00000000	      6.14966370	     -5.89435496	      3.02055904	      0.80780904	      0.90072080	      1.02820263	      2.68126026	      6.99517650	    -18.50372381	    -18.86441177	     -0.32924610	      6.04150786	      2.47975294	     -3.89989041	      9.60071703	     10.82584529	      9.03567323	    -58.10046672	     -1.01404444	      1.15444204	      6.33671407	    -10.32449551	    -11.28367544	      8.44107259	     -0.72769499	      5.75438677	    -12.00910665	     17.62595759	     15.98527702	     89.95437384	      0.00000000	      0.00000000	      8.23385464	      6.17387642	    -12.89808558	     19.23040306	     89.95437384	      0.00000000	      0.00000000
      2.01000000	      6.19058835	     -5.74734786	      2.90936477	      0.81640961	      0.90097047	      1.02878962	      1.97926064	      6.97250687	    -18.09371098	    -18.82784764	     -0.32860793	      6.48628851	      2.36011451	     -3.93088311	     10.73183530	     10.39237941	      8.81871893	    -57.31814836	     -1.00039041	      1.91349313	      5.86576638	    -10.54731661	    -11.32074816	      8.15466080	     -0.59582207	      6.42020240	    -12.02061462	     17.60293017	     16.20349959	     89.95437384	      0.00000000	      0.00000000	      7.82263322	      6.23446524	    -13.01232947	     18.33730314	     89.95437384	      0.00000000	      0.00000000
      2.02000000	      6.37582226	     -5.49561187	      2.74026439	      0.82515510	      0.90144046	      1.02928161	      1.08215539	      6.83434717	    -17.62585937	    -18.77012435	     -0.32760047	      7.07769398	      2.07137302	     -3.98312514	     11.49894537	      9.87852558	      8.83346582	    -56.13271113	     -0.97970063	      2.65152155	      5.23989500	    -11.03748651	    -11.53008261	      7.75614199	     -0.38472751	      6.93973927	    -12.10090303	     17.30669471	     16.75258923	     89.95437384	      0.00000000	      0.00000000	      7.39136652	      6.30841110	    -13.07959672	     17.55251529	     89.95437384	      0.00000000	      0.00000000
      2.03000000	      6.37566447	     -5.36562638	      2.62110352	      0.83379343	      0.90144956	      1.02974848	      0.41792341	      6.81013683	    -17.21485335	    -18.72032931	     -0.32673138	      7.52260273	      1.96657325	     -3.99403377	     12.52360899	      9.46545514	      8.74062147	    -54.90661912	     -0.95830128	      3.32000483	      4.92197378	    -11.14513047	    -11.50366755	      7.49382089	     -0.25826809	      7.48353711	    -12.16100615	     17.08000317	     17.19522606	     89.95437384	      0.00000000	      0.00000000	      6.88816262	      6.41256958	    -13.12190932	     16.85045322	     89.95437384	      0.00000000	      0.00000000
      2.04000000	      6.19143960	     -5.33462757	      2.48359559	      0.84236958	      0.90109587	      1.03029574	      0.04788389	      6.81135452	    -17.17300315	    -18.83824872	     -0.32878947	      7.78688597	      1.82391095	     -3.94772556	     13.75484086	      9.28429658	      8.86181764	    -53.55186225	     -0.93465632	      3.71794104	      4.75703400	    -10.95274524	    -11.27826585	      7.33967656	     -0.12727723	      7.93572918	    -12.28246017	     16.89950672	     17.79181390	     89.95437384	      0.00000000	      0.00000000	      6.23877954	      6.56742890	    -13.10251321	     16.49215870	     89.95437384	      0.00000000	      0.00000000
      2.05000000	      6.67864014	     -4.88541082	      2.22793541	      0.85114780	      0.90183676	      1.03058859	     -1.30564687	      6.45104112	    -16.51001448	    -18.53835751	     -0.32355538	      8.65040866	      1.87972586	     -4.07250208	     13.82306679	      8.51371207	      9.09652266	    -51.61419638	     -0.90083767	      4.64759259	      4.85515416	    -11.31560920	    -11.87346060	      6.72475455	      0.24841042	      8.32963689	    -12.34365922	     16.02449789	     18.57358500	     89.95437384	      0.00000000	      0.00000000	      5.96642491	      6.58860558	    -12.71367066	     15.62032220	     89.95437384	      0.00000000	      0.00000000
